<svg xmlns="http://www.w3.org/2000/svg" viewBox="0 0 600 120.42"><defs><style>.cls-1{fill:#3c145e;}</style></defs><g id="Layer_2" data-name="Layer 2"><g id="Layer_1-2" data-name="Layer 1"><polygon class="cls-1" points="275.66 82.66 275.66 10.98 255.79 10.98 255.79 37.81 230.29 37.81 230.29 10.98 210.43 10.98 210.43 82.66 230.29 82.66 230.29 55.42 255.79 55.42 255.79 82.66 275.66 82.66"/><path class="cls-1" d="M367.75,46.82v-.2a36.14,36.14,0,0,0-2.91-14.44,36.8,36.8,0,0,0-8-11.78,37.9,37.9,0,0,0-12.19-7.93,41.86,41.86,0,0,0-30.72,0,38.49,38.49,0,0,0-12.29,8,36.51,36.51,0,0,0-11.06,26.36V47a36.15,36.15,0,0,0,2.92,14.44,36.76,36.76,0,0,0,8,11.77,37.82,37.82,0,0,0,12.19,7.94,41.86,41.86,0,0,0,30.72,0,38.77,38.77,0,0,0,12.29-8,36.49,36.49,0,0,0,11.05-26.37ZM347.38,47a20.62,20.62,0,0,1-1.33,7.37,19.32,19.32,0,0,1-3.69,6.09,18.08,18.08,0,0,1-20.58,4.1,18.54,18.54,0,0,1-5.84-4.25,18.89,18.89,0,0,1-3.79-6.14,20.42,20.42,0,0,1-1.33-7.38v-.2a20.41,20.41,0,0,1,1.33-7.37,19.37,19.37,0,0,1,3.69-6.1A17.15,17.15,0,0,1,321.57,29a18.91,18.91,0,0,1,14.95,0,17.51,17.51,0,0,1,5.79,4.19,19.42,19.42,0,0,1,3.74,6.2,21,21,0,0,1,1.33,7.42Z"/><polygon class="cls-1" points="410.54 56.35 394.25 10.98 372.14 10.98 401.12 83.18 419.55 83.18 448.63 10.98 426.92 10.98 410.54 56.35"/><polygon class="cls-1" points="479.02 54.4 513.43 54.4 513.43 38.73 479.02 38.73 479.02 27.78 517.01 27.78 517.01 10.98 459.36 10.98 459.36 82.66 517.52 82.66 517.52 65.77 479.02 65.77 479.02 54.4"/><path class="cls-1" d="M582.9,57.68a25.06,25.06,0,0,0,10.75-8.35q4-5.47,4-13.77v-.21q0-10.33-6.34-16.69A24.76,24.76,0,0,0,582,13a42.15,42.15,0,0,0-14-2h-33.9V82.66h19.87V61h8.81l14.43,21.7H600Zm-5.12-20.79a7.59,7.59,0,0,1-2.82,6.2q-2.82,2.29-7.83,2.3H553.92V28.08H567a12.94,12.94,0,0,1,7.83,2.15,7.51,7.51,0,0,1,2.92,6.46Z"/><polygon class="cls-1" points="225.36 111.49 214.94 97.79 210.43 97.79 210.43 120.03 215.25 120.03 215.25 105.9 226.03 120.03 230.19 120.03 230.19 97.79 225.36 97.79 225.36 111.49"/><polygon class="cls-1" points="268.87 111.01 279.35 111.01 279.35 106.66 268.87 106.66 268.87 102.15 280.78 102.15 280.78 97.79 264.04 97.79 264.04 120.03 280.94 120.03 280.94 115.68 268.87 115.68 268.87 111.01"/><polygon class="cls-1" points="312.09 102.31 318.86 102.31 318.86 120.03 323.75 120.03 323.75 102.31 330.52 102.31 330.52 97.79 312.09 97.79 312.09 102.31"/><polygon class="cls-1" points="385.41 112.85 380.42 97.73 376.23 97.73 371.24 112.85 366.63 97.79 361.39 97.79 368.99 120.19 373.24 120.19 378.26 105.64 383.28 120.19 387.54 120.19 395.13 97.79 390.02 97.79 385.41 112.85"/><path class="cls-1" d="M445.21,100.76a11.82,11.82,0,0,0-3.73-2.44,12.83,12.83,0,0,0-9.49,0,11.41,11.41,0,0,0-3.75,2.48,11.63,11.63,0,0,0-2.46,3.65,11.31,11.31,0,0,0-.89,4.46V109a11.23,11.23,0,0,0,.88,4.46,10.76,10.76,0,0,0,2.44,3.62,11.73,11.73,0,0,0,3.74,2.45,12.16,12.16,0,0,0,4.73.91,12.29,12.29,0,0,0,4.75-.91,11.38,11.38,0,0,0,7.1-10.6v-.06a11.4,11.4,0,0,0-.87-4.46A10.93,10.93,0,0,0,445.21,100.76ZM443.42,109a7.22,7.22,0,0,1-.5,2.68,7,7,0,0,1-1.36,2.21,6.17,6.17,0,0,1-2.12,1.49,7,7,0,0,1-5.41,0,6.73,6.73,0,0,1-3.53-3.73,7.41,7.41,0,0,1-.49-2.71v-.06a7.21,7.21,0,0,1,.49-2.68,6.86,6.86,0,0,1,1.37-2.21,6.31,6.31,0,0,1,2.09-1.5,6.67,6.67,0,0,1,2.72-.54,6.52,6.52,0,0,1,2.7.56,6.69,6.69,0,0,1,2.15,1.51,6.89,6.89,0,0,1,1.39,2.22,7.4,7.4,0,0,1,.5,2.7Z"/><path class="cls-1" d="M498.43,109.6a7,7,0,0,0,1.32-4.4v-.07a6.88,6.88,0,0,0-1.91-5.08,8.79,8.79,0,0,0-6.48-2.26H481.19V120h4.89v-7.12h3.85l4.76,7.12h5.72l-5.43-8A7.67,7.67,0,0,0,498.43,109.6Zm-3.64-4.13a2.86,2.86,0,0,1-1,2.27,4.08,4.08,0,0,1-2.78.86h-5v-6.36h4.86a4.56,4.56,0,0,1,2.83.79,2.82,2.82,0,0,1,1,2.37Z"/><polygon class="cls-1" points="552.45 97.79 546.54 97.79 537.52 107.52 537.52 97.79 532.62 97.79 532.62 120.03 537.52 120.03 537.52 113.24 540.09 110.57 546.98 120.03 552.86 120.03 543.39 107.23 552.45 97.79"/><path class="cls-1" d="M598.17,109.06a8.24,8.24,0,0,0-2.22-1.34,23.4,23.4,0,0,0-3-1q-1.44-.37-2.37-.66a7.54,7.54,0,0,1-1.48-.61,1.82,1.82,0,0,1-.74-.71,2,2,0,0,1-.21-.94v-.06a1.7,1.7,0,0,1,.71-1.39,3.5,3.5,0,0,1,2.15-.55,7.33,7.33,0,0,1,2.86.59,15.74,15.74,0,0,1,2.92,1.6l2.54-3.69a13.1,13.1,0,0,0-3.76-2.09,13.28,13.28,0,0,0-4.5-.73,10.09,10.09,0,0,0-3.14.47,7.31,7.31,0,0,0-2.45,1.37,6.32,6.32,0,0,0-1.59,2.11,6.44,6.44,0,0,0-.57,2.75v.06a6.46,6.46,0,0,0,.52,2.77,5.18,5.18,0,0,0,1.48,1.86,8.64,8.64,0,0,0,2.32,1.25,26.48,26.48,0,0,0,3.05.92c.93.24,1.69.46,2.27.67a6.34,6.34,0,0,1,1.37.64,1.8,1.8,0,0,1,.67.68,2,2,0,0,1,.17.84v.06a1.76,1.76,0,0,1-.84,1.55A4.28,4.28,0,0,1,592,116a8.33,8.33,0,0,1-3.51-.73,14.55,14.55,0,0,1-3.13-2l-2.89,3.46a13.11,13.11,0,0,0,4.45,2.69,14.77,14.77,0,0,0,5,.87,11.11,11.11,0,0,0,3.3-.46,7.5,7.5,0,0,0,2.56-1.33,6,6,0,0,0,1.67-2.16,6.89,6.89,0,0,0,.6-2.94v-.07a6.18,6.18,0,0,0-.46-2.51A5.12,5.12,0,0,0,598.17,109.06Z"/><path class="cls-1" d="M159.06,101.48l-.16-.56a4,4,0,0,0-.17-.5c-1.55-3.61-3.14-7.22-4.88-10.78s-3.59-7.12-5.66-10.62L153,101.64a9.66,9.66,0,0,1-.49,5.67,7.89,7.89,0,0,1-3.83,4.15,6.72,6.72,0,0,1-2.79.66H36.06a6.72,6.72,0,0,1-2.79-.66,7.93,7.93,0,0,1-3.83-4.15,9.66,9.66,0,0,1-.49-5.67L33.74,79c-2.06,3.5-3.93,7-5.64,10.62s-3.33,7.17-4.87,10.78c-.05.08-.11.34-.17.5l-.16.57a7.61,7.61,0,0,0-.25,1.15,14.8,14.8,0,0,0-.25,2.4,16.15,16.15,0,0,0,.67,4.93,15,15,0,0,0,2.43,4.71,14.37,14.37,0,0,0,4.4,3.85A14.17,14.17,0,0,0,36,120.38l110,0a14.58,14.58,0,0,0,10.5-5.72,15.15,15.15,0,0,0,2.43-4.72,16.21,16.21,0,0,0,.67-4.94,14.8,14.8,0,0,0-.25-2.4A9.22,9.22,0,0,0,159.06,101.48Z"/><path class="cls-1" d="M91,0h0C-9.82,1.75-3.47,27.9,3.38,44.52,5.06,42.87,8,41.09,13,39.27l17.2-6.15c1-.37,2-.67,2.86-.94a.62.62,0,0,0,.45-.52c1.45-12.24,13-13.6,13-13.6A20.52,20.52,0,0,0,42,23a19,19,0,0,0-2.84,7.7l-1,6.54a.65.65,0,0,1-.5.53,37.2,37.2,0,0,0-5.24,1.52l-.63.22L15.17,45.45A39.71,39.71,0,0,0,10,47.77C7.83,48.93,6.54,50,6.71,50.65a6.84,6.84,0,0,0,8.06,4.87,22.57,22.57,0,0,0,2.93-.84l4.5-1.61,12.71-4.54c1-.38,2-.78,2.93-1.19a27.54,27.54,0,0,0,3.54-1.87l.51-.3a4.28,4.28,0,0,0,2.1-3l1.1-7.84.38-2.71a12.66,12.66,0,0,1,1.9-5.15A14.6,14.6,0,0,1,50.52,23c6.9-5.55,24.2-7.31,40.46-7.77h0c16.26.46,33.56,2.22,40.46,7.77a14.39,14.39,0,0,1,3.15,3.42,12.66,12.66,0,0,1,1.9,5.15l.38,2.71,1.1,7.84a4.28,4.28,0,0,0,2.1,3l.51.3a28.23,28.23,0,0,0,3.54,1.87c.91.41,1.9.81,2.94,1.19l12.71,4.54,4.49,1.61a22.57,22.57,0,0,0,2.93.84,6.84,6.84,0,0,0,8.06-4.87c.17-.63-1.12-1.72-3.24-2.88a39.71,39.71,0,0,0-5.22-2.32l-16.58-5.93-.63-.22a37.2,37.2,0,0,0-5.24-1.52.65.65,0,0,1-.5-.53l-1-6.54A19,19,0,0,0,140,23a20.52,20.52,0,0,0-4.53-5s11.54,1.36,13,13.6a.62.62,0,0,0,.46.52c.9.27,1.84.57,2.85.94l17.2,6.15c5,1.82,8,3.6,9.64,5.25C185.43,27.9,191.79,1.75,91,0Z"/><path class="cls-1" d="M52.52,43.94a4.5,4.5,0,0,0,1.46.87,5.73,5.73,0,0,0,1.9.32H68.21a6.35,6.35,0,0,0,2-.32,6,6,0,0,0,1.66-.87A4.67,4.67,0,0,0,73,42.66a3.44,3.44,0,0,0,.49-1.54l.64-9.38a2.71,2.71,0,0,0-.28-1.41,3.26,3.26,0,0,0-.93-1.15,4.54,4.54,0,0,0-1.43-.76,5.69,5.69,0,0,0-1.79-.28H58.16a6.28,6.28,0,0,0-1.85.28,6.12,6.12,0,0,0-1.61.76,4.79,4.79,0,0,0-1.18,1.15,3.3,3.3,0,0,0-.59,1.41l-1.44,9.38a3,3,0,0,0,.15,1.54A3.35,3.35,0,0,0,52.52,43.94Z"/><path class="cls-1" d="M81.32,43.94a5.25,5.25,0,0,0,1.56.87,6.05,6.05,0,0,0,1.93.32H97.15a6,6,0,0,0,1.93-.32,5.25,5.25,0,0,0,1.56-.87,4,4,0,0,0,1-1.28,3.26,3.26,0,0,0,.32-1.54l-.4-9.38a3.06,3.06,0,0,0-.43-1.41,4.11,4.11,0,0,0-1.06-1.15,5.28,5.28,0,0,0-1.52-.76,6,6,0,0,0-1.83-.28H85.22a6,6,0,0,0-1.83.28,5.28,5.28,0,0,0-1.52.76,4.11,4.11,0,0,0-1.06,1.15,3.06,3.06,0,0,0-.43,1.41L80,41.12a3.26,3.26,0,0,0,.32,1.54A4,4,0,0,0,81.32,43.94Zm1.85-12.2a1.12,1.12,0,0,1,.17-.58,1.51,1.51,0,0,1,.43-.48,2,2,0,0,1,.63-.32,2.43,2.43,0,0,1,.77-.12H96.79a2.43,2.43,0,0,1,.77.12,2,2,0,0,1,.63.32,1.51,1.51,0,0,1,.43.48,1.12,1.12,0,0,1,.17.58l.3,9.38a1.3,1.3,0,0,1-.14.64,1.72,1.72,0,0,1-.42.52,2,2,0,0,1-.64.35,2.63,2.63,0,0,1-.8.13H84.87a2.63,2.63,0,0,1-.8-.13,2,2,0,0,1-.64-.35,1.72,1.72,0,0,1-.42-.52,1.3,1.3,0,0,1-.14-.64Z"/><path class="cls-1" d="M129,31.74a3.18,3.18,0,0,0-.59-1.41,4.79,4.79,0,0,0-1.18-1.15,6.12,6.12,0,0,0-1.61-.76,6.28,6.28,0,0,0-1.85-.28H112.26a5.69,5.69,0,0,0-1.79.28,4.54,4.54,0,0,0-1.43.76,3.38,3.38,0,0,0-.93,1.15,2.81,2.81,0,0,0-.28,1.41l.64,9.38a3.44,3.44,0,0,0,.49,1.54,4.84,4.84,0,0,0,1.16,1.28,6,6,0,0,0,1.66.87,6.35,6.35,0,0,0,2,.32h12.33a5.73,5.73,0,0,0,1.9-.32,4.5,4.5,0,0,0,1.46-.87,3.35,3.35,0,0,0,.88-1.28,3,3,0,0,0,.15-1.54Z"/><path class="cls-1" d="M50.22,52a4.21,4.21,0,0,0-.67,1.68L47.84,64.86a3.84,3.84,0,0,0,1.08,3.36,4.48,4.48,0,0,0,1.59,1,5.53,5.53,0,0,0,2.07.39h13.5a6.16,6.16,0,0,0,2.15-.39,6.07,6.07,0,0,0,1.82-1,5.26,5.26,0,0,0,1.27-1.52,4.48,4.48,0,0,0,.56-1.84l.76-11.15A3.64,3.64,0,0,0,72.35,52a4,4,0,0,0-1-1.36,4.75,4.75,0,0,0-1.55-.9,5.58,5.58,0,0,0-2-.34H55.3a6.21,6.21,0,0,0-2,.34,6.36,6.36,0,0,0-1.76.9A5.4,5.4,0,0,0,50.22,52Z"/><path class="cls-1" d="M79.44,53.71,79,64.86a4.25,4.25,0,0,0,.35,1.84,4.45,4.45,0,0,0,1.11,1.52,5.15,5.15,0,0,0,1.7,1,5.86,5.86,0,0,0,2.11.39h13.5a5.86,5.86,0,0,0,2.11-.39,5.15,5.15,0,0,0,1.7-1,4.45,4.45,0,0,0,1.11-1.52,4.25,4.25,0,0,0,.35-1.84l-.48-11.15A3.79,3.79,0,0,0,102,52a4.64,4.64,0,0,0-1.15-1.36,5.61,5.61,0,0,0-1.65-.9,5.94,5.94,0,0,0-2-.34H84.71a5.84,5.84,0,0,0-2,.34,5.54,5.54,0,0,0-1.66.9A4.64,4.64,0,0,0,79.92,52,3.93,3.93,0,0,0,79.44,53.71Z"/><path class="cls-1" d="M132.41,53.71a4.21,4.21,0,0,0-.67-1.68,5.4,5.4,0,0,0-1.3-1.36,6.36,6.36,0,0,0-1.76-.9,6.16,6.16,0,0,0-2-.34H114.12a5.58,5.58,0,0,0-2,.34,4.75,4.75,0,0,0-1.55.9,3.87,3.87,0,0,0-1,1.36,3.52,3.52,0,0,0-.3,1.68l.76,11.15a4.48,4.48,0,0,0,.56,1.84,5.26,5.26,0,0,0,1.27,1.52,6.07,6.07,0,0,0,1.82,1,6.18,6.18,0,0,0,2.16.39h13.49a5.53,5.53,0,0,0,2.07-.39,4.48,4.48,0,0,0,1.59-1A3.89,3.89,0,0,0,134,66.7a4,4,0,0,0,.14-1.84Z"/><path class="cls-1" d="M46.28,77.93a5.4,5.4,0,0,0-.76,2L43.45,93.42a5.23,5.23,0,0,0,.13,2.24,4.9,4.9,0,0,0,2.74,3.12,5.63,5.63,0,0,0,2.28.47H63.49a6.44,6.44,0,0,0,2.39-.47,6.71,6.71,0,0,0,2-1.27,6.53,6.53,0,0,0,1.42-1.85,5.81,5.81,0,0,0,.62-2.24l.92-13.48a4.61,4.61,0,0,0-1.4-3.64,5,5,0,0,0-1.69-1.09,5.73,5.73,0,0,0-2.13-.4H51.89a6.37,6.37,0,0,0-2.22.4,6.61,6.61,0,0,0-1.94,1.09A6.25,6.25,0,0,0,46.28,77.93Z"/><path class="cls-1" d="M78.32,79.94l-.58,13.48a5.42,5.42,0,0,0,.38,2.24,5.54,5.54,0,0,0,1.21,1.85,5.74,5.74,0,0,0,1.87,1.27,6,6,0,0,0,2.34.47H98.42a6,6,0,0,0,2.34-.47,5.74,5.74,0,0,0,1.87-1.27,5.54,5.54,0,0,0,1.21-1.85,5.42,5.42,0,0,0,.38-2.24l-.58-13.48a4.92,4.92,0,0,0-.53-2,5.29,5.29,0,0,0-1.27-1.63A5.83,5.83,0,0,0,100,75.21a6.11,6.11,0,0,0-2.18-.4H84.11a6.11,6.11,0,0,0-2.18.4,5.83,5.83,0,0,0-1.81,1.09,5.29,5.29,0,0,0-1.27,1.63A4.92,4.92,0,0,0,78.32,79.94Zm3.32,0a2,2,0,0,1,.22-.83,2.17,2.17,0,0,1,.52-.69,2.48,2.48,0,0,1,.75-.46A2.72,2.72,0,0,1,84,77.8H97.92a2.72,2.72,0,0,1,.91.16,2.48,2.48,0,0,1,.75.46,2.36,2.36,0,0,1,.53.69,2.12,2.12,0,0,1,.21.83l.42,13.48a2.14,2.14,0,0,1-.17.91,2.08,2.08,0,0,1-.51.76,2.38,2.38,0,0,1-.77.52,2.3,2.3,0,0,1-1,.19H83.62a2.3,2.3,0,0,1-1-.19,2.38,2.38,0,0,1-.77-.52,2.21,2.21,0,0,1-.51-.76,2.14,2.14,0,0,1-.17-.91Z"/><path class="cls-1" d="M130.07,74.81H116.34a5.74,5.74,0,0,0-2.14.4,5.07,5.07,0,0,0-1.69,1.09,4.61,4.61,0,0,0-1.4,3.64L112,93.42a5.81,5.81,0,0,0,.62,2.24,6.53,6.53,0,0,0,1.42,1.85,6.71,6.71,0,0,0,2,1.27,6.44,6.44,0,0,0,2.39.47h14.89a5.63,5.63,0,0,0,2.28-.47,4.9,4.9,0,0,0,2.74-3.12,5.23,5.23,0,0,0,.13-2.24l-2.07-13.48a5.23,5.23,0,0,0-.76-2,6.08,6.08,0,0,0-1.45-1.63,6.68,6.68,0,0,0-1.93-1.09A6.47,6.47,0,0,0,130.07,74.81Z"/></g></g></svg>