<?xml version="1.0" encoding="UTF-8" standalone="no"?>
<!-- Generator: Adobe Illustrator 25.4.1, SVG Export Plug-In . SVG Version: 6.00 Build 0)  -->
<svg version="1.1" id="Layer_1" x="0px" y="0px" viewBox="0 0 230.93001 31.860001" xml:space="preserve" sodipodi:docname="logo.a0a7eecf.svg" width="230.93001" height="31.860001" inkscape:version="1.2 (dc2aeda, 2022-05-15)" xmlns:inkscape="http://www.inkscape.org/namespaces/inkscape" xmlns:sodipodi="http://sodipodi.sourceforge.net/DTD/sodipodi-0.dtd" xmlns:xlink="http://www.w3.org/1999/xlink" xmlns="http://www.w3.org/2000/svg" xmlns:svg="http://www.w3.org/2000/svg"><defs id="defs4371"/><sodipodi:namedview id="namedview4369" pagecolor="#ffffff" bordercolor="#000000" borderopacity="0.25" inkscape:showpageshadow="2" inkscape:pageopacity="0.0" inkscape:pagecheckerboard="0" inkscape:deskcolor="#d1d1d1" showgrid="false" inkscape:zoom="5.2666667" inkscape:cx="121.42405" inkscape:cy="16.613924" inkscape:window-width="1390" inkscape:window-height="1205" inkscape:window-x="0" inkscape:window-y="223" inkscape:window-maximized="0" inkscape:current-layer="Layer_1"/>
<style type="text/css" id="style4255">
	.st0{clip-path:url(#SVGID_00000119809479829898149530000012921132698116618148_);}
	
		.st1{clip-path:url(#SVGID_00000124157296966439089640000004634720567991621520_);fill:url(#SVGID_00000103961084889708089350000009041712047118153656_);}
	.st2{clip-path:url(#SVGID_00000009555893845865850460000013130542480302342805_);fill:#303030;}
	
		.st3{clip-path:url(#SVGID_00000042017377392421810740000010972521472894121351_);fill:url(#SVGID_00000140007300317922158220000002787691792487207573_);}
	
		.st4{clip-path:url(#SVGID_00000006671604638921238430000006883039035617408146_);fill:url(#SVGID_00000129205434259018473000000007831704315127139494_);}
</style>
<g id="g4366" transform="translate(-4.4000001,-12.98)">
	<g id="g4364">
		<defs id="defs4258">
			<rect id="SVGID_1_" y="9.2700005" width="240" height="41.459999" x="0"/>
		</defs>
		<clipPath id="SVGID_00000174569306691010181950000003662013699095727274_">
			<use xlink:href="#SVGID_1_" style="overflow:visible" id="use4260"/>
		</clipPath>
		<g clip-path="url(#SVGID_00000174569306691010181950000003662013699095727274_)" id="g4276">
			<defs id="defs4264">
				<path id="SVGID_00000015348473751418058710000000931588911767616670_" d="m 195.71,31.01 c 0,-2.52 1.42,-4.55 4.2,-4.55 2.84,0 4.22,2.06 4.22,4.55 0,2.49 -1.38,4.55 -4.22,4.55 -2.8,0 -4.2,-2.05 -4.2,-4.55 m -2.52,0 c 0,3.46 2.44,6.27 6.72,6.27 4.33,0 6.74,-2.82 6.74,-6.27 0,-3.45 -2.41,-6.27 -6.74,-6.27 -4.27,-0.01 -6.72,2.8 -6.72,6.27 m -1.18,-10.36 -5.61,13.91 h -0.06 l -5.7,-13.91 h -2.98 l 7.27,16.31 h 2.86 l 7.26,-16.31 z m 16.93,16.31 h 2.68 V 20.65 h -2.68 z m 7.67,-14.43 h 5.46 c 2.62,0 3.95,0.91 3.95,2.73 0,1.95 -1.35,2.93 -4.05,2.93 h -5.36 z m -2.69,-1.88 v 16.31 h 2.69 v -6.89 h 6.27 c 3.23,0 5.91,-1.65 5.91,-4.84 0,-3.1 -2.83,-4.59 -5.91,-4.59 h -8.96 z m 15.94,0 v 0.28 h 1.02 v 2.05 h 0.4 v -2.05 h 1.02 v -0.28 z m 4.89,0 -0.86,1.97 -0.87,-1.97 h -0.57 v 2.33 h 0.38 v -1.96 l 0.86,1.96 h 0.4 l 0.85,-1.96 h 0.01 v 0.35 c -0.01,0.14 -0.01,0.22 -0.01,0.23 v 1.37 h 0.4 v -2.33 h -0.59 z"/>
			</defs>
			<clipPath id="SVGID_00000171707583514189130880000014642690554632021156_">
				<use xlink:href="#SVGID_00000015348473751418058710000000931588911767616670_" style="overflow:visible" id="use4266"/>
			</clipPath>
			
				<linearGradient id="SVGID_00000180328753727424572880000003807465443511693967_" gradientUnits="userSpaceOnUse" x1="-1.2248" y1="10.1045" x2="-1.0389" y2="10.1045" gradientTransform="matrix(0,-89.4911,-89.4911,0,1110.7513,-72.3282)">
				<stop offset="0" style="stop-color:#28ABE2" id="stop4269"/>
				<stop offset="1" style="stop-color:#56C5F1" id="stop4271"/>
			</linearGradient>
			
				<rect x="177.66" y="20.65" style="fill:url(#SVGID_00000180328753727424572880000003807465443511693967_)" width="57.669998" height="16.639999" clip-path="url(#SVGID_00000171707583514189130880000014642690554632021156_)" id="rect4274"/>
		</g>
		<g clip-path="url(#SVGID_00000174569306691010181950000003662013699095727274_)" id="g4300">
			<defs id="defs4279">
				<rect id="SVGID_00000024703345775698449220000004729610661853071781_" y="9.2700005" width="240" height="41.459999" x="0"/>
			</defs>
			<clipPath id="SVGID_00000157298215897253617560000015494011032510600382_">
				<use xlink:href="#SVGID_00000024703345775698449220000004729610661853071781_" style="overflow:visible" id="use4281"/>
			</clipPath>
			<path style="fill:#303030" d="m 91.88,24.61 c -3.96,0 -6.9,2.02 -6.9,6.14 v 0 11.05 h 2.85 v -5.63 c 0.9,0.87 2.32,1.32 3.8,1.32 3.95,0 6.49,-2.86 6.49,-6.71 0,-1.54 -0.47,-3.08 -1.49,-4.24 -1.03,-1.16 -2.6,-1.93 -4.75,-1.93 m 2.48,9.43 v 0 c -0.62,0.84 -1.52,1.28 -2.74,1.32 h -0.16 c -0.89,0 -1.65,-0.23 -2.32,-0.69 -0.88,-0.64 -1.35,-1.6 -1.39,-2.96 -0.01,-0.12 -0.01,-0.24 -0.01,-0.36 0,-1.52 0.31,-2.64 0.9,-3.38 0.59,-0.74 1.45,-1.13 2.66,-1.17 h 0.21 c 1.22,0 2.1,0.35 2.7,1 0.6,0.67 0.94,1.69 0.98,3.1 0.01,0.1 0.01,0.19 0.01,0.28 -0.02,1.2 -0.3,2.15 -0.84,2.86" clip-path="url(#SVGID_00000157298215897253617560000015494011032510600382_)" id="path4284"/>
			<path style="fill:#303030" d="m 109.97,33.44 c -0.3,0.75 -1.56,1.8 -3.45,1.8 -2.48,0 -3.92,-0.98 -4.01,-3.47 h 10.58 c 0,-4.99 -2.54,-7.28 -6.45,-7.28 -4.66,0 -7.16,2.76 -7.15,6.76 -0.01,3.56 2.49,6.11 6.68,6.11 2.99,0 5.8,-1.05 6.65,-3.92 z m -6.35,-5.76 c 0.76,-0.67 1.64,-1 2.71,-1.01 1.23,0 2.14,0.29 2.76,0.83 0.58,0.51 0.93,1.27 1.05,2.28 h -7.63 c 0.06,-0.78 0.41,-1.47 1.11,-2.1" clip-path="url(#SVGID_00000157298215897253617560000015494011032510600382_)" id="path4286"/>
			<path style="fill:#303030" d="M 78.87,27.83 73.2,26.77 h 0.01 c -1.15,-0.2 -2.2,-0.68 -2.2,-1.85 0,-2.09 2.25,-2.64 4.34,-2.64 2.44,0 4.62,0.82 4.75,3.29 h 2.91 c -0.2,-4.3 -3.65,-5.56 -7.97,-5.56 -3.63,0 -7.05,1.63 -7.05,5.21 0,3.84 4.66,4.05 8.47,4.77 h 0.01 c 1.65,0.31 2.76,0.66 3.29,1.02 0.94,0.62 1.51,2.77 -0.96,3.69 v 0 c -1.92,0.72 -8.55,1.33 -8.55,-3.3 h -2.91 c 0,4.48 3.81,6.06 8.24,6.06 3.81,0 8,-1.3 7.98,-5.09 0.01,-2.72 -1.99,-4.05 -4.69,-4.54" clip-path="url(#SVGID_00000157298215897253617560000015494011032510600382_)" id="path4288"/>
			<path style="fill:#303030" d="m 138.13,26.48 v -1.65 h -2.71 v 12.19 h 2.86 v -7.05 c 0.01,-0.83 0.32,-1.51 0.96,-2.09 1.1,-0.97 2.31,-0.86 3.67,-0.86 V 24.6 c -1.37,-0.36 -3.31,0.06 -4.78,1.88" clip-path="url(#SVGID_00000157298215897253617560000015494011032510600382_)" id="path4290"/>
			<path style="fill:#303030" d="m 168.6,26.31 c -1.82,-2.52 -5.93,-2.35 -8.12,-0.06 v -1.43 h -2.69 v 12.19 h 2.84 v -6.62 c 0.02,-4.46 5.68,-4.86 5.7,-1.73 v 8.35 h 2.83 v -7.39 c 0,-3.32 5.69,-4.44 5.69,-0.43 v 7.82 h 2.86 v -8.35 c 0.01,-4.44 -5.97,-5.5 -9.11,-2.35" clip-path="url(#SVGID_00000157298215897253617560000015494011032510600382_)" id="path4292"/>
			<path style="fill:#303030" d="m 153.53,31.52 c 0,1 -0.26,1.81 -0.79,2.47 -1.28,1.58 -5.59,2.22 -5.59,-1.14 v -8.02 h -2.86 v 8.68 c -0.02,2.66 2.26,3.85 4.91,3.85 1.89,0 3.4,-0.61 4.46,-1.82 v 1.47 h 2.71 V 24.83 h -2.86 v 6.69 z" clip-path="url(#SVGID_00000157298215897253617560000015494011032510600382_)" id="path4294"/>
			<path style="fill:#303030" d="m 131.69,21.55 h -2.84 v 3.29 H 128 v 2.06 h 0.85 v 6.67 c 0,3.23 1.81,3.45 5.16,3.45 V 34.8 c -1.54,0 -2.33,0.1 -2.33,-1.44 v -0.01 -6.48 h 2.66 v -2.05 h -2.66 v -3.27 z" clip-path="url(#SVGID_00000157298215897253617560000015494011032510600382_)" id="path4296"/>
			<path style="fill:#303030" d="m 121.27,35.24 c -2.69,-0.01 -3.77,-1.61 -3.77,-4.33 0.01,-2.43 1.26,-4.23 3.79,-4.24 2.08,0 2.99,0.92 3.29,2.53 h 2.73 c -0.56,-6.07 -8.42,-5.5 -11.07,-2.73 -1.16,1.2 -1.74,2.81 -1.74,4.78 0,1.79 0.59,3.27 1.77,4.39 2.9,2.71 10.29,2.7 11.05,-3.19 h -2.73 c -0.47,1.89 -1.72,2.79 -3.32,2.79" clip-path="url(#SVGID_00000157298215897253617560000015494011032510600382_)" id="path4298"/>
		</g>
		<g clip-path="url(#SVGID_00000174569306691010181950000003662013699095727274_)" id="g4319">
			<defs id="defs4303">
				<path id="SVGID_00000077286485733193948640000015894169124843554192_" d="m 19.06,19.28 c 0,11.65 32.62,2.17 29.41,20.11 0.31,-0.16 9.34,-2.13 9.34,-10.68 0,-8.28 -10,-13.64 -18.44,-9.95 -0.43,-3.24 -4.8,-5.78 -10.14,-5.78 -5.61,0 -10.17,2.82 -10.17,6.3"/>
			</defs>
			<clipPath id="SVGID_00000151516161650339630310000015669075430903252893_">
				<use xlink:href="#SVGID_00000077286485733193948640000015894169124843554192_" style="overflow:visible" id="use4305"/>
			</clipPath>
			
				<linearGradient id="SVGID_00000152964317011848019990000000299832973762715821_" gradientUnits="userSpaceOnUse" x1="-0.70630002" y1="1.1846" x2="-0.52039999" y2="1.1846" gradientTransform="matrix(0,-142.0934,-142.0934,0,206.7695,-60.9703)">
				<stop offset="0" style="stop-color:#56C5F1" id="stop4308"/>
				<stop offset="0.3467" style="stop-color:#4FC0EE" id="stop4310"/>
				<stop offset="0.7803" style="stop-color:#3AB4E7" id="stop4312"/>
				<stop offset="1" style="stop-color:#28ABE2" id="stop4314"/>
			</linearGradient>
			
				<rect x="19.059999" y="12.98" style="fill:url(#SVGID_00000152964317011848019990000000299832973762715821_)" width="38.75" height="26.42" clip-path="url(#SVGID_00000151516161650339630310000015669075430903252893_)" id="rect4317"/>
		</g>
		<g clip-path="url(#SVGID_00000174569306691010181950000003662013699095727274_)" id="g4338">
			<defs id="defs4322">
				<path id="SVGID_00000100356075051098244360000013609969976630984835_" d="m 4.4,29.11 c 0,6.14 5.7,11.13 12.74,11.13 2.05,0 3.98,-0.43 5.69,-1.18 0.43,3.24 4.8,5.78 10.14,5.78 5.62,0 10.18,-2.82 10.18,-6.3 0,-11.65 -32.62,-2.17 -29.41,-20.11 -0.31,0.15 -9.34,2.12 -9.34,10.68"/>
			</defs>
			<clipPath id="SVGID_00000133511307703427930440000009075531878455045524_">
				<use xlink:href="#SVGID_00000100356075051098244360000013609969976630984835_" style="overflow:visible" id="use4324"/>
			</clipPath>
			
				<linearGradient id="SVGID_00000023963361721729239170000007379799704355394964_" gradientUnits="userSpaceOnUse" x1="-0.53839999" y1="0.73280001" x2="-0.35249999" y2="0.73280001" gradientTransform="matrix(0,-142.0898,-142.0898,0,127.9006,-31.6643)">
				<stop offset="0" style="stop-color:#56C5F1" id="stop4327"/>
				<stop offset="0.3467" style="stop-color:#4FC0EE" id="stop4329"/>
				<stop offset="0.7803" style="stop-color:#3AB4E7" id="stop4331"/>
				<stop offset="1" style="stop-color:#28ABE2" id="stop4333"/>
			</linearGradient>
			
				<rect x="4.4000001" y="18.43" style="fill:url(#SVGID_00000023963361721729239170000007379799704355394964_)" width="38.75" height="26.41" clip-path="url(#SVGID_00000133511307703427930440000009075531878455045524_)" id="rect4336"/>
		</g>
		<g clip-path="url(#SVGID_00000174569306691010181950000003662013699095727274_)" id="g4346">
			<defs id="defs4341">
				<path id="SVGID_00000120534110983067137360000017666663661897254817_" d="m 15.38,9.27 c -0.25,0.27 -0.47,0.55 -0.66,0.83 -0.65,0.96 -0.95,1.89 -0.96,2.87 0,1.17 0.24,2.06 0.65,2.85 0.41,0.78 1.02,1.47 1.87,2.13 0.57,0.43 1.24,0.83 2.01,1.21 1.03,0.5 2.23,0.95 3.56,1.34 1.78,0.53 3.78,0.97 5.92,1.37 2.85,0.53 5.92,0.98 9.03,1.49 4.15,0.68 8.33,1.46 12.14,2.72 2.18,0.72 4.24,1.6 6.09,2.73 2.11,1.29 3.96,2.94 5.31,5.04 0.71,1.12 1.28,2.36 1.67,3.71 0.42,1.45 0.63,3.02 0.63,4.72 0,0.27 -0.01,0.54 -0.03,0.82 1.64,-0.66 3.69,-1.71 5.55,-3.24 1.24,-1.03 2.4,-2.26 3.31,-3.75 1.22,-1.99 2.03,-4.43 2.03,-7.59 0,-2.21 -0.51,-4.3 -1.44,-6.23 -0.94,-1.93 -2.3,-3.69 -4,-5.17 -3.41,-2.97 -8.18,-4.86 -13.5,-4.86 -3.09,0 -5.98,0.65 -8.55,1.77 l -2.54,1.11 -0.36,-2.75 C 42.98,11.48 42.59,10.58 41.87,9.68 41.76,9.55 41.65,9.41 41.53,9.28 H 15.38 Z"/>
			</defs>
			<clipPath id="SVGID_00000067941757134197357880000003801969837162351542_">
				<use xlink:href="#SVGID_00000120534110983067137360000017666663661897254817_" style="overflow:visible" id="use4343"/>
			</clipPath>
		</g>
		<g clip-path="url(#SVGID_00000174569306691010181950000003662013699095727274_)" id="g4354">
			<defs id="defs4349">
				<path id="SVGID_00000112609819696454779130000007687527045697662090_" d="m 39.22,9.27 c -3.88,1.24 -6.58,4 -6.58,7.2 0,14.59 35.8,2.71 32.28,25.19 C 65.26,41.47 75.17,39 75.17,28.28 75.17,17.91 64.2,11.2 54.93,15.82 54.59,12.89 52,10.42 48.39,9.27 Z"/>
			</defs>
			<clipPath id="SVGID_00000146457968053219543460000002637956815966897554_">
				<use xlink:href="#SVGID_00000112609819696454779130000007687527045697662090_" style="overflow:visible" id="use4351"/>
			</clipPath>
		</g>
		<g clip-path="url(#SVGID_00000174569306691010181950000003662013699095727274_)" id="g4362">
			<defs id="defs4357">
				<path id="SVGID_00000161611037287539264080000011803772573689545379_" d="m 16.55,28.79 c 0,7.7 6.26,13.94 13.99,13.94 2.24,0 4.37,-0.54 6.25,-1.48 0.47,4.05 5.27,7.25 11.13,7.25 6.17,0 11.17,-3.54 11.17,-7.9 0,-14.6 -35.8,-2.72 -32.28,-25.2 -0.35,0.2 -10.26,2.67 -10.26,13.39"/>
			</defs>
			<clipPath id="SVGID_00000054959273634039923070000010517431209539876246_">
				<use xlink:href="#SVGID_00000161611037287539264080000011803772573689545379_" style="overflow:visible" id="use4359"/>
			</clipPath>
		</g>
	</g>
</g>
</svg>